<svg width="1454" height="365" viewBox="0 0 1454 365" fill="none" xmlns="http://www.w3.org/2000/svg">
<g filter="url(#filter0_f_202_19)">
<path d="M264.408 164.288V66.1746H280.583V50.0001H330.706V66.1746H347.058V115.942H330.706V132.117H282.36V164.288H264.408ZM282.36 114.165H328.929V67.952H282.36V114.165ZM384.729 164.288V148.292H368.554V66.1746H384.729V50.0001H434.852V66.1746H451.204V148.292H434.852V164.288H384.729ZM386.506 146.514H433.075V67.952H386.506V146.514ZM488.875 164.288V148.292H472.7V66.1746H488.875V50.0001H538.998V66.1746H555.35V148.292H538.998V164.288H488.875ZM490.652 146.514H537.22V67.952H490.652V146.514ZM576.846 164.288V66.1746H593.02V50.0001H643.144V66.1746H659.496V115.942H643.144V132.117H635.323V146.514H651.32V164.288H633.546V148.292H617.193V132.117H594.798V164.288H576.846ZM594.798 114.165H641.366V67.952H594.798V114.165ZM716.575 164.288V66.1746H732.75V50.0001H750.524V66.1746H766.876V98.346H781.095V66.1746H797.448V50.0001H815.4V66.1746H831.397V164.288H813.622V67.952H799.225V99.9457H782.873V148.292H765.099V99.9457H748.746V67.952H734.527V164.288H716.575ZM851.097 164.288V82.1714H867.271V66.1746H883.268V50.0001H901.398V66.1746H917.395V82.1714H933.747V164.288H915.617V132.117H869.049V164.288H851.097ZM869.049 114.165H915.617V83.9489H899.62V67.952H885.046V83.9489H869.049V114.165ZM955.243 164.288V50.0001H973.195V66.1746H989.192V82.1714H1005.54V130.34H1019.76V50.0001H1037.89V164.288H1019.76V148.292H1003.77V132.117H987.414V83.9489H973.195V164.288H955.243ZM1067.39 83.9489V73.9953H1075.56V67.952H1059.39V50.0001H1077.34V66.1746H1085.34V75.7727H1077.34V83.9489H1067.39ZM1122.95 164.288V148.292H1106.78V130.34H1124.73V146.514H1171.3V115.942H1122.95V99.9457H1106.78V66.1746H1122.95V50.0001H1173.07V66.1746H1189.43V83.9489H1171.3V67.952H1124.73V98.346H1173.07V114.165H1189.43V148.292H1173.07V164.288H1122.95ZM345.24 314.288V298.292H329.065V264.165H347.017V296.514H393.586V217.952H345.24V200H395.363V216.175H411.716V298.292H395.363V314.288H345.24ZM449.386 314.288V298.292H433.211V216.175H449.386V200H499.509V216.175H515.862V233.949H497.732V217.952H451.163V248.346H483.512V265.942H451.163V296.514H497.732V280.34H515.862V298.292H499.509V314.288H449.386ZM553.532 314.288V298.292H537.357V216.175H553.532V200H603.655V216.175H620.007V298.292H603.655V314.288H553.532ZM555.309 296.514H601.878V217.952H555.309V296.514ZM641.503 314.288V216.175H657.678V200H707.801V216.175H724.153V265.942H707.801V282.117H659.455V314.288H641.503ZM659.455 264.165H706.024V217.952H659.455V264.165ZM740.268 314.288V232.171H756.443V216.175H772.44V200H790.569V216.175H806.566V232.171H822.918V314.288H804.789V282.117H758.22V314.288H740.268ZM758.22 264.165H804.789V233.949H788.792V217.952H774.217V233.949H758.22V264.165ZM844.414 314.288V216.175H860.589V200H910.712V216.175H927.064V265.942H910.712V282.117H902.891V296.514H918.888V314.288H901.114V298.292H884.762V282.117H862.366V314.288H844.414ZM862.366 264.165H908.935V217.952H862.366V264.165ZM948.56 314.288V200H998.861V216.175H1014.86V232.171H1031.21V282.117H1014.86V298.292H998.861V314.288H948.56ZM966.512 296.514H997.084V280.34H1013.08V233.949H997.084V217.952H966.512V296.514ZM1074.29 314.288V249.946H1058.29V233.949H1042.12V200H1060.07V232.171H1076.07V248.346H1090.64V232.171H1106.64V200H1124.77V233.949H1108.42V249.946H1092.42V314.288H1074.29Z" fill="url(#paint0_linear_202_19)"/>
</g>
<g filter="url(#filter1_f_202_19)">
<path d="M264.408 164.288V66.1746H280.583V50.0001H330.706V66.1746H347.058V115.942H330.706V132.117H282.36V164.288H264.408ZM282.36 114.165H328.929V67.952H282.36V114.165ZM384.729 164.288V148.292H368.554V66.1746H384.729V50.0001H434.852V66.1746H451.204V148.292H434.852V164.288H384.729ZM386.506 146.514H433.075V67.952H386.506V146.514ZM488.875 164.288V148.292H472.7V66.1746H488.875V50.0001H538.998V66.1746H555.35V148.292H538.998V164.288H488.875ZM490.652 146.514H537.22V67.952H490.652V146.514ZM576.846 164.288V66.1746H593.02V50.0001H643.144V66.1746H659.496V115.942H643.144V132.117H635.323V146.514H651.32V164.288H633.546V148.292H617.193V132.117H594.798V164.288H576.846ZM594.798 114.165H641.366V67.952H594.798V114.165ZM716.575 164.288V66.1746H732.75V50.0001H750.524V66.1746H766.876V98.346H781.095V66.1746H797.448V50.0001H815.4V66.1746H831.397V164.288H813.622V67.952H799.225V99.9457H782.873V148.292H765.099V99.9457H748.746V67.952H734.527V164.288H716.575ZM851.097 164.288V82.1714H867.271V66.1746H883.268V50.0001H901.398V66.1746H917.395V82.1714H933.747V164.288H915.617V132.117H869.049V164.288H851.097ZM869.049 114.165H915.617V83.9489H899.62V67.952H885.046V83.9489H869.049V114.165ZM955.243 164.288V50.0001H973.195V66.1746H989.192V82.1714H1005.54V130.34H1019.76V50.0001H1037.89V164.288H1019.76V148.292H1003.77V132.117H987.414V83.9489H973.195V164.288H955.243ZM1067.39 83.9489V73.9953H1075.56V67.952H1059.39V50.0001H1077.34V66.1746H1085.34V75.7727H1077.34V83.9489H1067.39ZM1122.95 164.288V148.292H1106.78V130.34H1124.73V146.514H1171.3V115.942H1122.95V99.9457H1106.78V66.1746H1122.95V50.0001H1173.07V66.1746H1189.43V83.9489H1171.3V67.952H1124.73V98.346H1173.07V114.165H1189.43V148.292H1173.07V164.288H1122.95ZM345.24 314.288V298.292H329.065V264.165H347.017V296.514H393.586V217.952H345.24V200H395.363V216.175H411.716V298.292H395.363V314.288H345.24ZM449.386 314.288V298.292H433.211V216.175H449.386V200H499.509V216.175H515.862V233.949H497.732V217.952H451.163V248.346H483.512V265.942H451.163V296.514H497.732V280.34H515.862V298.292H499.509V314.288H449.386ZM553.532 314.288V298.292H537.357V216.175H553.532V200H603.655V216.175H620.007V298.292H603.655V314.288H553.532ZM555.309 296.514H601.878V217.952H555.309V296.514ZM641.503 314.288V216.175H657.678V200H707.801V216.175H724.153V265.942H707.801V282.117H659.455V314.288H641.503ZM659.455 264.165H706.024V217.952H659.455V264.165ZM740.268 314.288V232.171H756.443V216.175H772.44V200H790.569V216.175H806.566V232.171H822.918V314.288H804.789V282.117H758.22V314.288H740.268ZM758.22 264.165H804.789V233.949H788.792V217.952H774.217V233.949H758.22V264.165ZM844.414 314.288V216.175H860.589V200H910.712V216.175H927.064V265.942H910.712V282.117H902.891V296.514H918.888V314.288H901.114V298.292H884.762V282.117H862.366V314.288H844.414ZM862.366 264.165H908.935V217.952H862.366V264.165ZM948.56 314.288V200H998.861V216.175H1014.86V232.171H1031.21V282.117H1014.86V298.292H998.861V314.288H948.56ZM966.512 296.514H997.084V280.34H1013.08V233.949H997.084V217.952H966.512V296.514ZM1074.29 314.288V249.946H1058.29V233.949H1042.12V200H1060.07V232.171H1076.07V248.346H1090.64V232.171H1106.64V200H1124.77V233.949H1108.42V249.946H1092.42V314.288H1074.29Z" fill="url(#paint1_linear_202_19)"/>
</g>
<g filter="url(#filter2_f_202_19)">
<path d="M264.408 164.288V66.1746H280.583V50.0001H330.706V66.1746H347.058V115.942H330.706V132.117H282.36V164.288H264.408ZM282.36 114.165H328.929V67.952H282.36V114.165ZM384.729 164.288V148.292H368.554V66.1746H384.729V50.0001H434.852V66.1746H451.204V148.292H434.852V164.288H384.729ZM386.506 146.514H433.075V67.952H386.506V146.514ZM488.875 164.288V148.292H472.7V66.1746H488.875V50.0001H538.998V66.1746H555.35V148.292H538.998V164.288H488.875ZM490.652 146.514H537.22V67.952H490.652V146.514ZM576.846 164.288V66.1746H593.02V50.0001H643.144V66.1746H659.496V115.942H643.144V132.117H635.323V146.514H651.32V164.288H633.546V148.292H617.193V132.117H594.798V164.288H576.846ZM594.798 114.165H641.366V67.952H594.798V114.165ZM716.575 164.288V66.1746H732.75V50.0001H750.524V66.1746H766.876V98.346H781.095V66.1746H797.448V50.0001H815.4V66.1746H831.397V164.288H813.622V67.952H799.225V99.9457H782.873V148.292H765.099V99.9457H748.746V67.952H734.527V164.288H716.575ZM851.097 164.288V82.1714H867.271V66.1746H883.268V50.0001H901.398V66.1746H917.395V82.1714H933.747V164.288H915.617V132.117H869.049V164.288H851.097ZM869.049 114.165H915.617V83.9489H899.62V67.952H885.046V83.9489H869.049V114.165ZM955.243 164.288V50.0001H973.195V66.1746H989.192V82.1714H1005.54V130.34H1019.76V50.0001H1037.89V164.288H1019.76V148.292H1003.77V132.117H987.414V83.9489H973.195V164.288H955.243ZM1067.39 83.9489V73.9953H1075.56V67.952H1059.39V50.0001H1077.34V66.1746H1085.34V75.7727H1077.34V83.9489H1067.39ZM1122.95 164.288V148.292H1106.78V130.34H1124.73V146.514H1171.3V115.942H1122.95V99.9457H1106.78V66.1746H1122.95V50.0001H1173.07V66.1746H1189.43V83.9489H1171.3V67.952H1124.73V98.346H1173.07V114.165H1189.43V148.292H1173.07V164.288H1122.95ZM345.24 314.288V298.292H329.065V264.165H347.017V296.514H393.586V217.952H345.24V200H395.363V216.175H411.716V298.292H395.363V314.288H345.24ZM449.386 314.288V298.292H433.211V216.175H449.386V200H499.509V216.175H515.862V233.949H497.732V217.952H451.163V248.346H483.512V265.942H451.163V296.514H497.732V280.34H515.862V298.292H499.509V314.288H449.386ZM553.532 314.288V298.292H537.357V216.175H553.532V200H603.655V216.175H620.007V298.292H603.655V314.288H553.532ZM555.309 296.514H601.878V217.952H555.309V296.514ZM641.503 314.288V216.175H657.678V200H707.801V216.175H724.153V265.942H707.801V282.117H659.455V314.288H641.503ZM659.455 264.165H706.024V217.952H659.455V264.165ZM740.268 314.288V232.171H756.443V216.175H772.44V200H790.569V216.175H806.566V232.171H822.918V314.288H804.789V282.117H758.22V314.288H740.268ZM758.22 264.165H804.789V233.949H788.792V217.952H774.217V233.949H758.22V264.165ZM844.414 314.288V216.175H860.589V200H910.712V216.175H927.064V265.942H910.712V282.117H902.891V296.514H918.888V314.288H901.114V298.292H884.762V282.117H862.366V314.288H844.414ZM862.366 264.165H908.935V217.952H862.366V264.165ZM948.56 314.288V200H998.861V216.175H1014.86V232.171H1031.21V282.117H1014.86V298.292H998.861V314.288H948.56ZM966.512 296.514H997.084V280.34H1013.08V233.949H997.084V217.952H966.512V296.514ZM1074.29 314.288V249.946H1058.29V233.949H1042.12V200H1060.07V232.171H1076.07V248.346H1090.64V232.171H1106.64V200H1124.77V233.949H1108.42V249.946H1092.42V314.288H1074.29Z" fill="url(#paint2_linear_202_19)"/>
</g>
<g filter="url(#filter3_f_202_19)">
<path d="M264.408 164.288V66.1746H280.583V50.0001H330.706V66.1746H347.058V115.942H330.706V132.117H282.36V164.288H264.408ZM282.36 114.165H328.929V67.952H282.36V114.165ZM384.729 164.288V148.292H368.554V66.1746H384.729V50.0001H434.852V66.1746H451.204V148.292H434.852V164.288H384.729ZM386.506 146.514H433.075V67.952H386.506V146.514ZM488.875 164.288V148.292H472.7V66.1746H488.875V50.0001H538.998V66.1746H555.35V148.292H538.998V164.288H488.875ZM490.652 146.514H537.22V67.952H490.652V146.514ZM576.846 164.288V66.1746H593.02V50.0001H643.144V66.1746H659.496V115.942H643.144V132.117H635.323V146.514H651.32V164.288H633.546V148.292H617.193V132.117H594.798V164.288H576.846ZM594.798 114.165H641.366V67.952H594.798V114.165ZM716.575 164.288V66.1746H732.75V50.0001H750.524V66.1746H766.876V98.346H781.095V66.1746H797.448V50.0001H815.4V66.1746H831.397V164.288H813.622V67.952H799.225V99.9457H782.873V148.292H765.099V99.9457H748.746V67.952H734.527V164.288H716.575ZM851.097 164.288V82.1714H867.271V66.1746H883.268V50.0001H901.398V66.1746H917.395V82.1714H933.747V164.288H915.617V132.117H869.049V164.288H851.097ZM869.049 114.165H915.617V83.9489H899.62V67.952H885.046V83.9489H869.049V114.165ZM955.243 164.288V50.0001H973.195V66.1746H989.192V82.1714H1005.54V130.34H1019.76V50.0001H1037.89V164.288H1019.76V148.292H1003.77V132.117H987.414V83.9489H973.195V164.288H955.243ZM1067.39 83.9489V73.9953H1075.56V67.952H1059.39V50.0001H1077.34V66.1746H1085.34V75.7727H1077.34V83.9489H1067.39ZM1122.95 164.288V148.292H1106.78V130.34H1124.73V146.514H1171.3V115.942H1122.95V99.9457H1106.78V66.1746H1122.95V50.0001H1173.07V66.1746H1189.43V83.9489H1171.3V67.952H1124.73V98.346H1173.07V114.165H1189.43V148.292H1173.07V164.288H1122.95ZM345.24 314.288V298.292H329.065V264.165H347.017V296.514H393.586V217.952H345.24V200H395.363V216.175H411.716V298.292H395.363V314.288H345.24ZM449.386 314.288V298.292H433.211V216.175H449.386V200H499.509V216.175H515.862V233.949H497.732V217.952H451.163V248.346H483.512V265.942H451.163V296.514H497.732V280.34H515.862V298.292H499.509V314.288H449.386ZM553.532 314.288V298.292H537.357V216.175H553.532V200H603.655V216.175H620.007V298.292H603.655V314.288H553.532ZM555.309 296.514H601.878V217.952H555.309V296.514ZM641.503 314.288V216.175H657.678V200H707.801V216.175H724.153V265.942H707.801V282.117H659.455V314.288H641.503ZM659.455 264.165H706.024V217.952H659.455V264.165ZM740.268 314.288V232.171H756.443V216.175H772.44V200H790.569V216.175H806.566V232.171H822.918V314.288H804.789V282.117H758.22V314.288H740.268ZM758.22 264.165H804.789V233.949H788.792V217.952H774.217V233.949H758.22V264.165ZM844.414 314.288V216.175H860.589V200H910.712V216.175H927.064V265.942H910.712V282.117H902.891V296.514H918.888V314.288H901.114V298.292H884.762V282.117H862.366V314.288H844.414ZM862.366 264.165H908.935V217.952H862.366V264.165ZM948.56 314.288V200H998.861V216.175H1014.86V232.171H1031.21V282.117H1014.86V298.292H998.861V314.288H948.56ZM966.512 296.514H997.084V280.34H1013.08V233.949H997.084V217.952H966.512V296.514ZM1074.29 314.288V249.946H1058.29V233.949H1042.12V200H1060.07V232.171H1076.07V248.346H1090.64V232.171H1106.64V200H1124.77V233.949H1108.42V249.946H1092.42V314.288H1074.29Z" fill="url(#paint3_linear_202_19)"/>
</g>
<path d="M264.408 164.288V66.1746H280.583V50.0001H330.706V66.1746H347.058V115.942H330.706V132.117H282.36V164.288H264.408ZM282.36 114.165H328.929V67.952H282.36V114.165ZM384.729 164.288V148.292H368.554V66.1746H384.729V50.0001H434.852V66.1746H451.204V148.292H434.852V164.288H384.729ZM386.506 146.514H433.075V67.952H386.506V146.514ZM488.875 164.288V148.292H472.7V66.1746H488.875V50.0001H538.998V66.1746H555.35V148.292H538.998V164.288H488.875ZM490.652 146.514H537.22V67.952H490.652V146.514ZM576.846 164.288V66.1746H593.02V50.0001H643.144V66.1746H659.496V115.942H643.144V132.117H635.323V146.514H651.32V164.288H633.546V148.292H617.193V132.117H594.798V164.288H576.846ZM594.798 114.165H641.366V67.952H594.798V114.165ZM716.575 164.288V66.1746H732.75V50.0001H750.524V66.1746H766.876V98.346H781.095V66.1746H797.448V50.0001H815.4V66.1746H831.397V164.288H813.622V67.952H799.225V99.9457H782.873V148.292H765.099V99.9457H748.746V67.952H734.527V164.288H716.575ZM851.097 164.288V82.1714H867.271V66.1746H883.268V50.0001H901.398V66.1746H917.395V82.1714H933.747V164.288H915.617V132.117H869.049V164.288H851.097ZM869.049 114.165H915.617V83.9489H899.62V67.952H885.046V83.9489H869.049V114.165ZM955.243 164.288V50.0001H973.195V66.1746H989.192V82.1714H1005.54V130.34H1019.76V50.0001H1037.89V164.288H1019.76V148.292H1003.77V132.117H987.414V83.9489H973.195V164.288H955.243ZM1067.39 83.9489V73.9953H1075.56V67.952H1059.39V50.0001H1077.34V66.1746H1085.34V75.7727H1077.34V83.9489H1067.39ZM1122.95 164.288V148.292H1106.78V130.34H1124.73V146.514H1171.3V115.942H1122.95V99.9457H1106.78V66.1746H1122.95V50.0001H1173.07V66.1746H1189.43V83.9489H1171.3V67.952H1124.73V98.346H1173.07V114.165H1189.43V148.292H1173.07V164.288H1122.95ZM345.24 314.288V298.292H329.065V264.165H347.017V296.514H393.586V217.952H345.24V200H395.363V216.175H411.716V298.292H395.363V314.288H345.24ZM449.386 314.288V298.292H433.211V216.175H449.386V200H499.509V216.175H515.862V233.949H497.732V217.952H451.163V248.346H483.512V265.942H451.163V296.514H497.732V280.34H515.862V298.292H499.509V314.288H449.386ZM553.532 314.288V298.292H537.357V216.175H553.532V200H603.655V216.175H620.007V298.292H603.655V314.288H553.532ZM555.309 296.514H601.878V217.952H555.309V296.514ZM641.503 314.288V216.175H657.678V200H707.801V216.175H724.153V265.942H707.801V282.117H659.455V314.288H641.503ZM659.455 264.165H706.024V217.952H659.455V264.165ZM740.268 314.288V232.171H756.443V216.175H772.44V200H790.569V216.175H806.566V232.171H822.918V314.288H804.789V282.117H758.22V314.288H740.268ZM758.22 264.165H804.789V233.949H788.792V217.952H774.217V233.949H758.22V264.165ZM844.414 314.288V216.175H860.589V200H910.712V216.175H927.064V265.942H910.712V282.117H902.891V296.514H918.888V314.288H901.114V298.292H884.762V282.117H862.366V314.288H844.414ZM862.366 264.165H908.935V217.952H862.366V264.165ZM948.56 314.288V200H998.861V216.175H1014.86V232.171H1031.21V282.117H1014.86V298.292H998.861V314.288H948.56ZM966.512 296.514H997.084V280.34H1013.08V233.949H997.084V217.952H966.512V296.514ZM1074.29 314.288V249.946H1058.29V233.949H1042.12V200H1060.07V232.171H1076.07V248.346H1090.64V232.171H1106.64V200H1124.77V233.949H1108.42V249.946H1092.42V314.288H1074.29Z" fill="white"/>
<defs>
<filter id="filter0_f_202_19" x="254.408" y="40" width="945.017" height="284.288" filterUnits="userSpaceOnUse" color-interpolation-filters="sRGB">
<feFlood flood-opacity="0" result="BackgroundImageFix"/>
<feBlend mode="normal" in="SourceGraphic" in2="BackgroundImageFix" result="shape"/>
<feGaussianBlur stdDeviation="5" result="effect1_foregroundBlur_202_19"/>
</filter>
<filter id="filter1_f_202_19" x="249.408" y="35" width="955.017" height="294.288" filterUnits="userSpaceOnUse" color-interpolation-filters="sRGB">
<feFlood flood-opacity="0" result="BackgroundImageFix"/>
<feBlend mode="normal" in="SourceGraphic" in2="BackgroundImageFix" result="shape"/>
<feGaussianBlur stdDeviation="7.5" result="effect1_foregroundBlur_202_19"/>
</filter>
<filter id="filter2_f_202_19" x="239.408" y="25" width="975.017" height="314.288" filterUnits="userSpaceOnUse" color-interpolation-filters="sRGB">
<feFlood flood-opacity="0" result="BackgroundImageFix"/>
<feBlend mode="normal" in="SourceGraphic" in2="BackgroundImageFix" result="shape"/>
<feGaussianBlur stdDeviation="12.5" result="effect1_foregroundBlur_202_19"/>
</filter>
<filter id="filter3_f_202_19" x="214.408" y="0" width="1025.02" height="364.288" filterUnits="userSpaceOnUse" color-interpolation-filters="sRGB">
<feFlood flood-opacity="0" result="BackgroundImageFix"/>
<feBlend mode="normal" in="SourceGraphic" in2="BackgroundImageFix" result="shape"/>
<feGaussianBlur stdDeviation="25" result="effect1_foregroundBlur_202_19"/>
</filter>
<linearGradient id="paint0_linear_202_19" x1="0" y1="180.156" x2="1454" y2="180.156" gradientUnits="userSpaceOnUse">
<stop offset="0.264423" stop-color="#D000FF"/>
<stop offset="1" stop-color="#00FFCC"/>
</linearGradient>
<linearGradient id="paint1_linear_202_19" x1="0" y1="180.156" x2="1454" y2="180.156" gradientUnits="userSpaceOnUse">
<stop offset="0.264423" stop-color="#D000FF"/>
<stop offset="1" stop-color="#00FFCC"/>
</linearGradient>
<linearGradient id="paint2_linear_202_19" x1="0" y1="180.156" x2="1454" y2="180.156" gradientUnits="userSpaceOnUse">
<stop offset="0.264423" stop-color="#D000FF"/>
<stop offset="1" stop-color="#00FFCC"/>
</linearGradient>
<linearGradient id="paint3_linear_202_19" x1="0" y1="180.156" x2="1454" y2="180.156" gradientUnits="userSpaceOnUse">
<stop offset="0.264423" stop-color="#D000FF"/>
<stop offset="1" stop-color="#00FFCC"/>
</linearGradient>
</defs>
</svg>
