<svg width="333" height="183" viewBox="0 0 333 183" fill="none" xmlns="http://www.w3.org/2000/svg">
<g filter="url(#filter0_f_204_20)">
<path d="M49.9999 132.304V61.6481H61.6479V50.0001H97.7439V61.6481H109.52V97.4881H97.7439V109.136H62.9279V132.304H49.9999ZM62.9279 96.2081H96.4639V62.9281H62.9279V96.2081ZM125 132.304V61.6481H136.648V50.0001H149.448V61.6481H161.224V84.8161H171.464V61.6481H183.24V50.0001H196.168V61.6481H207.688V132.304H194.888V62.9281H184.52V85.9681H172.744V120.784H159.944V85.9681H148.168V62.9281H137.928V132.304H125ZM234.773 132.304V120.784H223.125V96.2081H236.053V119.504H269.589V62.9281H234.773V50.0001H270.869V61.6481H282.645V120.784H270.869V132.304H234.773Z" fill="url(#paint0_linear_204_20)"/>
</g>
<g filter="url(#filter1_f_204_20)">
<path d="M49.9999 132.304V61.6481H61.6479V50.0001H97.7439V61.6481H109.52V97.4881H97.7439V109.136H62.9279V132.304H49.9999ZM62.9279 96.2081H96.4639V62.9281H62.9279V96.2081ZM125 132.304V61.6481H136.648V50.0001H149.448V61.6481H161.224V84.8161H171.464V61.6481H183.24V50.0001H196.168V61.6481H207.688V132.304H194.888V62.9281H184.52V85.9681H172.744V120.784H159.944V85.9681H148.168V62.9281H137.928V132.304H125ZM234.773 132.304V120.784H223.125V96.2081H236.053V119.504H269.589V62.9281H234.773V50.0001H270.869V61.6481H282.645V120.784H270.869V132.304H234.773Z" fill="url(#paint1_linear_204_20)"/>
</g>
<g filter="url(#filter2_f_204_20)">
<path d="M49.9999 132.304V61.6481H61.6479V50.0001H97.7439V61.6481H109.52V97.4881H97.7439V109.136H62.9279V132.304H49.9999ZM62.9279 96.2081H96.4639V62.9281H62.9279V96.2081ZM125 132.304V61.6481H136.648V50.0001H149.448V61.6481H161.224V84.8161H171.464V61.6481H183.24V50.0001H196.168V61.6481H207.688V132.304H194.888V62.9281H184.52V85.9681H172.744V120.784H159.944V85.9681H148.168V62.9281H137.928V132.304H125ZM234.773 132.304V120.784H223.125V96.2081H236.053V119.504H269.589V62.9281H234.773V50.0001H270.869V61.6481H282.645V120.784H270.869V132.304H234.773Z" fill="url(#paint2_linear_204_20)"/>
</g>
<g filter="url(#filter3_f_204_20)">
<path d="M49.9999 132.304V61.6481H61.6479V50.0001H97.7439V61.6481H109.52V97.4881H97.7439V109.136H62.9279V132.304H49.9999ZM62.9279 96.2081H96.4639V62.9281H62.9279V96.2081ZM125 132.304V61.6481H136.648V50.0001H149.448V61.6481H161.224V84.8161H171.464V61.6481H183.24V50.0001H196.168V61.6481H207.688V132.304H194.888V62.9281H184.52V85.9681H172.744V120.784H159.944V85.9681H148.168V62.9281H137.928V132.304H125ZM234.773 132.304V120.784H223.125V96.2081H236.053V119.504H269.589V62.9281H234.773V50.0001H270.869V61.6481H282.645V120.784H270.869V132.304H234.773Z" fill="url(#paint3_linear_204_20)"/>
</g>
<path d="M49.9999 132.304V61.6481H61.6479V50.0001H97.7439V61.6481H109.52V97.4881H97.7439V109.136H62.9279V132.304H49.9999ZM62.9279 96.2081H96.4639V62.9281H62.9279V96.2081ZM125 132.304V61.6481H136.648V50.0001H149.448V61.6481H161.224V84.8161H171.464V61.6481H183.24V50.0001H196.168V61.6481H207.688V132.304H194.888V62.9281H184.52V85.9681H172.744V120.784H159.944V85.9681H148.168V62.9281H137.928V132.304H125ZM234.773 132.304V120.784H223.125V96.2081H236.053V119.504H269.589V62.9281H234.773V50.0001H270.869V61.6481H282.645V120.784H270.869V132.304H234.773Z" fill="white"/>
<defs>
<filter id="filter0_f_204_20" x="39.9999" y="40" width="252.645" height="102.304" filterUnits="userSpaceOnUse" color-interpolation-filters="sRGB">
<feFlood flood-opacity="0" result="BackgroundImageFix"/>
<feBlend mode="normal" in="SourceGraphic" in2="BackgroundImageFix" result="shape"/>
<feGaussianBlur stdDeviation="5" result="effect1_foregroundBlur_204_20"/>
</filter>
<filter id="filter1_f_204_20" x="34.9999" y="35" width="262.645" height="112.304" filterUnits="userSpaceOnUse" color-interpolation-filters="sRGB">
<feFlood flood-opacity="0" result="BackgroundImageFix"/>
<feBlend mode="normal" in="SourceGraphic" in2="BackgroundImageFix" result="shape"/>
<feGaussianBlur stdDeviation="7.5" result="effect1_foregroundBlur_204_20"/>
</filter>
<filter id="filter2_f_204_20" x="24.9999" y="25" width="282.645" height="132.304" filterUnits="userSpaceOnUse" color-interpolation-filters="sRGB">
<feFlood flood-opacity="0" result="BackgroundImageFix"/>
<feBlend mode="normal" in="SourceGraphic" in2="BackgroundImageFix" result="shape"/>
<feGaussianBlur stdDeviation="12.5" result="effect1_foregroundBlur_204_20"/>
</filter>
<filter id="filter3_f_204_20" x="-0.00012207" y="0" width="332.645" height="182.304" filterUnits="userSpaceOnUse" color-interpolation-filters="sRGB">
<feFlood flood-opacity="0" result="BackgroundImageFix"/>
<feBlend mode="normal" in="SourceGraphic" in2="BackgroundImageFix" result="shape"/>
<feGaussianBlur stdDeviation="25" result="effect1_foregroundBlur_204_20"/>
</filter>
<linearGradient id="paint0_linear_204_20" x1="23.8199" y1="89.7681" x2="311.82" y2="89.7681" gradientUnits="userSpaceOnUse">
<stop offset="0.25" stop-color="#AE62FF"/>
<stop offset="1" stop-color="#00FFEA"/>
</linearGradient>
<linearGradient id="paint1_linear_204_20" x1="23.8199" y1="89.7681" x2="311.82" y2="89.7681" gradientUnits="userSpaceOnUse">
<stop offset="0.25" stop-color="#AE62FF"/>
<stop offset="1" stop-color="#00FFEA"/>
</linearGradient>
<linearGradient id="paint2_linear_204_20" x1="23.8199" y1="89.7681" x2="311.82" y2="89.7681" gradientUnits="userSpaceOnUse">
<stop offset="0.25" stop-color="#AE62FF"/>
<stop offset="1" stop-color="#00FFEA"/>
</linearGradient>
<linearGradient id="paint3_linear_204_20" x1="23.8199" y1="89.7681" x2="311.82" y2="89.7681" gradientUnits="userSpaceOnUse">
<stop offset="0.25" stop-color="#AE62FF"/>
<stop offset="1" stop-color="#00FFEA"/>
</linearGradient>
</defs>
</svg>
